# MagicaVoxel @ Ephtracy

# material
mtllib rambo_monkey_right_leg.mtl
usemtl palette

# normals
vn -1 0 0
vn 1 0 0
vn 0 0 1
vn 0 0 -1
vn 0 -1 0
vn 0 1 0

# texcoords
vt 0.939453 0.5
vt 0.970703 0.5

# verts
v -4 0 1.5
v -4 0 -1.5
v -4 1 1.5
v -4 1 -1.5
v -3 9 -0.5
v -3 9 -2.5
v -3 11 2.5
v -3 11 -0.5
v -3 14 -0.5
v -3 14 -2.5
v -3 15 -0.5
v -3 15 -2.5
v -3 17 2.5
v -3 17 -0.5
v -3 18 -0.5
v -3 18 -2.5
v -2 1 1.5
v -2 1 -1.5
v -2 2 1.5
v -2 2 -1.5
v -2 3 1.5
v -2 3 0.5
v -2 4 -0.5
v -2 4 -1.5
v -2 6 0.5
v -2 6 -0.5
v -2 6 -1.5
v -2 6 -2.5
v -2 7 2.5
v -2 7 1.5
v -2 9 -0.5
v -2 9 -2.5
v -2 11 2.5
v -2 11 -0.5
v -2 14 -0.5
v -2 14 -2.5
v -2 15 -0.5
v -2 15 -2.5
v -2 16 3.5
v -2 16 2.5
v -2 17 2.5
v -2 17 -0.5
v -2 18 -0.5
v -2 18 -1.5
v -2 19 3.5
v -2 19 -1.5
v -1 2 1.5
v -1 2 -1.5
v -1 3 1.5
v -1 3 0.5
v -1 3 -1.5
v -1 3 -2.5
v -1 4 2.5
v -1 4 1.5
v -1 4 0.5
v -1 4 -0.5
v -1 4 -1.5
v -1 6 0.5
v -1 6 -0.5
v -1 6 -1.5
v -1 6 -2.5
v -1 7 2.5
v -1 7 1.5
v -1 8 -2.5
v -1 8 -3.5
v -1 11 -2.5
v -1 11 -3.5
v -1 15 3.5
v -1 15 2.5
v -1 15 -2.5
v -1 15 -3.5
v -1 16 3.5
v -1 16 2.5
v -1 17 -2.5
v -1 17 -3.5
v 0 3 2.5
v 0 3 1.5
v 0 4 2.5
v 0 4 1.5
v 0 12 -2.5
v 0 12 -3.5
v 0 14 3.5
v 0 14 2.5
v 0 15 3.5
v 0 15 2.5
v 0 15 -2.5
v 0 15 -3.5
v 1 3 -1.5
v 1 3 -2.5
v 1 4 -1.5
v 1 4 -2.5
v 0 3 -1.5
v 0 3 -2.5
v 0 4 -1.5
v 0 4 -2.5
v 1 3 2.5
v 1 3 1.5
v 1 4 1.5
v 1 6 2.5
v 1 6 1.5
v 1 8 -2.5
v 1 8 -3.5
v 1 11 -2.5
v 1 11 -3.5
v 1 14 3.5
v 1 14 2.5
v 1 15 3.5
v 1 15 2.5
v 1 18 3.5
v 1 18 2.5
v 1 19 3.5
v 1 19 2.5
v 2 2 1.5
v 2 2 -1.5
v 2 3 1.5
v 2 3 -0.5
v 2 3 -1.5
v 2 3 -2.5
v 2 4 -0.5
v 2 4 -1.5
v 2 5 -0.5
v 2 5 -2.5
v 2 6 2.5
v 2 6 1.5
v 2 7 2.5
v 2 7 1.5
v 2 15 3.5
v 2 15 2.5
v 2 16 3.5
v 2 16 2.5
v 3 0 1.5
v 3 0 -1.5
v 3 2 1.5
v 3 2 -1.5
v 3 3 1.5
v 3 3 -0.5
v 3 5 -0.5
v 3 5 -2.5
v 3 7 2.5
v 3 7 1.5
v 3 7 0.5
v 3 7 -2.5
v 3 9 2.5
v 3 9 1.5
v 3 11 1.5
v 3 11 0.5
v 3 11 -2.5
v 3 12 0.5
v 3 12 -1.5
v 3 12 -2.5
v 3 12 -3.5
v 3 16 3.5
v 3 16 2.5
v 3 17 -2.5
v 3 17 -3.5
v 3 18 3.5
v 3 18 2.5
v 3 18 -1.5
v 3 18 -2.5
v 3 19 2.5
v 3 19 -1.5
v 4 7 0.5
v 4 7 -2.5
v 4 9 2.5
v 4 9 1.5
v 4 11 1.5
v 4 11 0.5
v 4 11 -2.5
v 4 12 0.5
v 4 12 -1.5
v 4 18 2.5
v 4 18 -1.5
v -2 16 3.5
v -2 19 3.5
v -1 15 3.5
v -1 16 3.5
v 0 14 3.5
v 0 15 3.5
v 1 14 3.5
v 1 15 3.5
v 1 18 3.5
v 1 19 3.5
v 2 15 3.5
v 2 16 3.5
v 3 16 3.5
v 3 18 3.5
v -3 11 2.5
v -3 17 2.5
v -2 7 2.5
v -2 11 2.5
v -2 16 2.5
v -2 17 2.5
v -1 4 2.5
v -1 7 2.5
v -1 15 2.5
v -1 16 2.5
v 0 3 2.5
v 0 4 2.5
v 0 14 2.5
v 0 15 2.5
v 1 3 2.5
v 1 6 2.5
v 1 14 2.5
v 1 15 2.5
v 1 18 2.5
v 1 19 2.5
v 2 6 2.5
v 2 7 2.5
v 2 15 2.5
v 2 16 2.5
v 3 7 2.5
v 3 9 2.5
v 3 16 2.5
v 3 18 2.5
v 3 19 2.5
v 4 9 2.5
v 4 18 2.5
v -4 0 1.5
v -4 1 1.5
v -2 1 1.5
v -2 2 1.5
v -2 3 1.5
v -2 7 1.5
v -1 2 1.5
v -1 3 1.5
v -1 4 1.5
v -1 7 1.5
v 0 3 1.5
v 0 4 1.5
v 1 3 1.5
v 1 4 1.5
v 1 6 1.5
v 2 2 1.5
v 2 3 1.5
v 2 4 1.5
v 2 6 1.5
v 2 7 1.5
v 3 0 1.5
v 3 2 1.5
v 3 3 1.5
v 3 7 1.5
v 3 7 0.5
v 3 11 0.5
v 4 7 0.5
v 4 11 0.5
v -3 9 -0.5
v -3 11 -0.5
v -3 17 -0.5
v -3 18 -0.5
v -2 4 -0.5
v -2 6 -0.5
v -2 9 -0.5
v -2 11 -0.5
v -2 17 -0.5
v -2 18 -0.5
v -1 4 -0.5
v -1 6 -0.5
v 3 9 1.5
v 3 11 1.5
v 4 9 1.5
v 4 11 1.5
v -2 3 0.5
v -2 6 0.5
v -1 3 0.5
v -1 4 0.5
v -1 6 0.5
v 3 11 0.5
v 3 12 0.5
v 4 11 0.5
v 4 12 0.5
v -3 14 -0.5
v -3 15 -0.5
v -2 14 -0.5
v -2 15 -0.5
v 2 3 -0.5
v 2 4 -0.5
v 2 5 -0.5
v 3 3 -0.5
v 3 5 -0.5
v -4 0 -1.5
v -4 1 -1.5
v -2 1 -1.5
v -2 2 -1.5
v -2 4 -1.5
v -2 6 -1.5
v -2 18 -1.5
v -2 19 -1.5
v -1 2 -1.5
v -1 3 -1.5
v -1 4 -1.5
v -1 6 -1.5
v 0 3 -1.5
v 0 4 -1.5
v 1 3 -1.5
v 1 4 -1.5
v 2 2 -1.5
v 2 3 -1.5
v 3 0 -1.5
v 3 2 -1.5
v 3 12 -1.5
v 3 18 -1.5
v 3 19 -1.5
v 4 12 -1.5
v 4 18 -1.5
v -3 9 -2.5
v -3 14 -2.5
v -3 15 -2.5
v -3 18 -2.5
v -2 6 -2.5
v -2 9 -2.5
v -2 14 -2.5
v -2 15 -2.5
v -1 3 -2.5
v -1 6 -2.5
v -1 8 -2.5
v -1 11 -2.5
v -1 15 -2.5
v -1 17 -2.5
v 0 3 -2.5
v 0 4 -2.5
v 0 12 -2.5
v 0 15 -2.5
v 1 3 -2.5
v 1 4 -2.5
v 1 8 -2.5
v 1 11 -2.5
v 2 3 -2.5
v 2 5 -2.5
v 3 5 -2.5
v 3 7 -2.5
v 3 11 -2.5
v 3 12 -2.5
v 3 17 -2.5
v 3 18 -2.5
v 4 7 -2.5
v 4 11 -2.5
v -1 8 -3.5
v -1 11 -3.5
v -1 15 -3.5
v -1 17 -3.5
v 0 12 -3.5
v 0 15 -3.5
v 1 8 -3.5
v 1 11 -3.5
v 3 12 -3.5
v 3 17 -3.5
v -4 0 1.5
v 3 0 1.5
v -4 0 -1.5
v 3 0 -1.5
v 0 3 2.5
v 1 3 2.5
v -2 3 1.5
v -1 3 1.5
v 0 3 1.5
v 1 3 1.5
v 2 3 1.5
v 3 3 1.5
v -2 3 0.5
v -1 3 0.5
v 2 3 -0.5
v 3 3 -0.5
v -1 3 -1.5
v 0 3 -1.5
v 1 3 -1.5
v 2 3 -1.5
v -1 3 -2.5
v 0 3 -2.5
v 1 3 -2.5
v 2 3 -2.5
v -1 4 2.5
v 0 4 2.5
v -1 4 1.5
v 0 4 1.5
v -2 4 -0.5
v -1 4 -0.5
v -2 4 -1.5
v -1 4 -1.5
v 0 4 -1.5
v 1 4 -1.5
v 0 4 -2.5
v 1 4 -2.5
v 2 5 -0.5
v 3 5 -0.5
v 2 5 -2.5
v 3 5 -2.5
v 1 6 2.5
v 2 6 2.5
v 1 6 1.5
v 2 6 1.5
v -2 6 0.5
v -1 6 0.5
v -2 6 -0.5
v -1 6 -0.5
v -2 6 -1.5
v -1 6 -1.5
v -2 6 -2.5
v -1 6 -2.5
v -2 7 2.5
v -1 7 2.5
v 2 7 2.5
v 3 7 2.5
v -2 7 1.5
v -1 7 1.5
v 2 7 1.5
v 3 7 1.5
v 3 7 0.5
v 4 7 0.5
v 3 7 -2.5
v 4 7 -2.5
v -1 8 -2.5
v 1 8 -2.5
v -1 8 -3.5
v 1 8 -3.5
v 3 9 2.5
v 4 9 2.5
v 3 9 1.5
v 4 9 1.5
v -3 9 -0.5
v -2 9 -0.5
v -3 9 -2.5
v -2 9 -2.5
v -3 11 2.5
v -2 11 2.5
v 3 11 1.5
v 4 11 1.5
v 3 11 0.5
v 4 11 0.5
v -3 11 -0.5
v -2 11 -0.5
v 3 12 0.5
v 4 12 0.5
v 3 12 -1.5
v 4 12 -1.5
v 0 12 -2.5
v 3 12 -2.5
v 0 12 -3.5
v 3 12 -3.5
v 0 14 3.5
v 1 14 3.5
v 0 14 2.5
v 1 14 2.5
v -1 15 3.5
v 0 15 3.5
v 1 15 3.5
v 2 15 3.5
v -1 15 2.5
v 0 15 2.5
v 1 15 2.5
v 2 15 2.5
v -3 15 -0.5
v -2 15 -0.5
v -3 15 -2.5
v -2 15 -2.5
v -1 15 -2.5
v 0 15 -2.5
v -1 15 -3.5
v 0 15 -3.5
v -2 16 3.5
v -1 16 3.5
v 2 16 3.5
v 3 16 3.5
v -2 16 2.5
v -1 16 2.5
v 2 16 2.5
v 3 16 2.5
v -4 1 1.5
v -2 1 1.5
v -4 1 -1.5
v -2 1 -1.5
v -2 2 1.5
v -1 2 1.5
v 2 2 1.5
v 3 2 1.5
v -2 2 -1.5
v -1 2 -1.5
v 2 2 -1.5
v 3 2 -1.5
v 3 11 0.5
v 4 11 0.5
v -1 11 -2.5
v 1 11 -2.5
v 3 11 -2.5
v 4 11 -2.5
v -1 11 -3.5
v 1 11 -3.5
v -3 14 -0.5
v -2 14 -0.5
v -3 14 -2.5
v -2 14 -2.5
v -3 17 2.5
v -2 17 2.5
v -3 17 -0.5
v -2 17 -0.5
v -1 17 -2.5
v 3 17 -2.5
v -1 17 -3.5
v 3 17 -3.5
v 1 18 3.5
v 3 18 3.5
v 1 18 2.5
v 3 18 2.5
v 4 18 2.5
v -3 18 -0.5
v -2 18 -0.5
v -2 18 -1.5
v 3 18 -1.5
v 4 18 -1.5
v -3 18 -2.5
v 3 18 -2.5
v -2 19 3.5
v 1 19 3.5
v 1 19 2.5
v 3 19 2.5
v -2 19 -1.5
v 3 19 -1.5

# faces
f 3/2/1 2/2/1 1/2/1
f 4/2/1 2/2/1 3/2/1
f 8/1/1 6/1/1 5/1/1
f 9/1/1 6/1/1 8/1/1
f 9/1/1 8/1/1 7/1/1
f 10/1/1 6/1/1 9/1/1
f 11/1/1 9/1/1 7/1/1
f 13/1/1 11/1/1 7/1/1
f 13/1/1 12/1/1 11/1/1
f 14/1/1 12/1/1 13/1/1
f 15/1/1 12/1/1 14/1/1
f 16/1/1 12/1/1 15/1/1
f 19/2/1 18/2/1 17/2/1
f 20/2/1 18/2/1 19/2/1
f 25/1/1 22/1/1 21/1/1
f 26/1/1 24/1/1 23/1/1
f 27/1/1 24/1/1 26/1/1
f 30/1/1 27/1/1 26/1/1
f 30/1/1 28/1/1 27/1/1
f 30/1/1 26/1/1 25/1/1
f 30/1/1 25/1/1 21/1/1
f 31/1/1 28/1/1 30/1/1
f 31/1/1 30/1/1 29/1/1
f 32/1/1 28/1/1 31/1/1
f 33/1/1 31/1/1 29/1/1
f 34/1/1 31/1/1 33/1/1
f 37/1/1 36/1/1 35/1/1
f 38/1/1 36/1/1 37/1/1
f 41/1/1 40/1/1 39/1/1
f 43/1/1 42/1/1 41/1/1
f 45/1/1 41/1/1 39/1/1
f 45/1/1 44/1/1 43/1/1
f 45/1/1 43/1/1 41/1/1
f 46/1/1 44/1/1 45/1/1
f 49/2/1 48/2/1 47/2/1
f 50/2/1 48/2/1 49/2/1
f 51/2/1 48/2/1 50/2/1
f 55/2/1 51/2/1 50/2/1
f 56/2/1 51/2/1 55/2/1
f 57/1/1 52/1/1 51/1/1
f 57/2/1 51/2/1 56/2/1
f 58/1/1 56/1/1 55/1/1
f 59/1/1 56/1/1 58/1/1
f 60/1/1 52/1/1 57/1/1
f 61/1/1 52/1/1 60/1/1
f 62/1/1 54/1/1 53/1/1
f 63/1/1 54/1/1 62/1/1
f 66/1/1 65/1/1 64/1/1
f 67/1/1 65/1/1 66/1/1
f 72/1/1 69/1/1 68/1/1
f 73/1/1 69/1/1 72/1/1
f 74/1/1 71/1/1 70/1/1
f 75/1/1 71/1/1 74/1/1
f 78/1/1 77/1/1 76/1/1
f 79/1/1 77/1/1 78/1/1
f 84/1/1 83/1/1 82/1/1
f 85/1/1 83/1/1 84/1/1
f 86/1/1 81/1/1 80/1/1
f 87/1/1 81/1/1 86/1/1
f 90/1/1 89/1/1 88/1/1
f 91/1/1 89/1/1 90/1/1
f 92/1/2 93/1/2 94/1/2
f 94/1/2 93/1/2 95/1/2
f 96/1/2 97/1/2 98/1/2
f 96/1/2 98/1/2 99/1/2
f 99/1/2 98/1/2 100/1/2
f 101/1/2 102/1/2 103/1/2
f 103/1/2 102/1/2 104/1/2
f 105/1/2 106/1/2 107/1/2
f 107/1/2 106/1/2 108/1/2
f 109/1/2 110/1/2 111/1/2
f 111/1/2 110/1/2 112/1/2
f 113/2/2 114/2/2 115/2/2
f 115/2/2 114/2/2 116/2/2
f 116/2/2 114/2/2 117/2/2
f 116/2/2 117/2/2 119/2/2
f 117/1/2 118/1/2 120/1/2
f 119/2/2 117/2/2 120/2/2
f 119/1/2 120/1/2 121/1/2
f 120/1/2 118/1/2 122/1/2
f 121/1/2 120/1/2 122/1/2
f 123/1/2 124/1/2 125/1/2
f 125/1/2 124/1/2 126/1/2
f 127/1/2 128/1/2 129/1/2
f 129/1/2 128/1/2 130/1/2
f 131/2/2 132/2/2 133/2/2
f 133/2/2 132/2/2 134/2/2
f 135/1/2 136/1/2 137/1/2
f 135/1/2 137/1/2 140/1/2
f 137/1/2 138/1/2 140/1/2
f 140/1/2 138/1/2 141/1/2
f 141/1/2 138/1/2 142/1/2
f 139/1/2 140/1/2 143/1/2
f 140/1/2 141/1/2 143/1/2
f 143/1/2 141/1/2 144/1/2
f 144/1/2 141/1/2 145/1/2
f 145/1/2 141/1/2 146/1/2
f 146/1/2 147/1/2 148/1/2
f 148/1/2 147/1/2 149/1/2
f 149/1/2 147/1/2 150/1/2
f 149/1/2 150/1/2 154/1/2
f 150/1/2 151/1/2 154/1/2
f 154/1/2 151/1/2 155/1/2
f 152/1/2 153/1/2 156/1/2
f 156/1/2 153/1/2 157/1/2
f 149/1/2 154/1/2 158/1/2
f 158/1/2 154/1/2 159/1/2
f 157/1/2 158/1/2 160/1/2
f 160/1/2 158/1/2 161/1/2
f 164/1/2 165/1/2 166/1/2
f 162/1/2 163/1/2 167/1/2
f 167/1/2 163/1/2 168/1/2
f 166/1/2 167/1/2 169/1/2
f 164/1/2 166/1/2 171/1/2
f 169/1/2 170/1/2 171/1/2
f 166/1/2 169/1/2 171/1/2
f 171/1/2 170/1/2 172/1/2
f 176/1/3 174/1/3 173/1/3
f 178/1/3 176/1/3 175/1/3
f 179/1/3 178/1/3 177/1/3
f 180/1/3 176/1/3 178/1/3
f 180/1/3 178/1/3 179/1/3
f 181/1/3 174/1/3 176/1/3
f 181/1/3 176/1/3 180/1/3
f 182/1/3 174/1/3 181/1/3
f 183/1/3 181/1/3 180/1/3
f 184/1/3 181/1/3 183/1/3
f 185/1/3 181/1/3 184/1/3
f 186/1/3 181/1/3 185/1/3
f 190/1/3 188/1/3 187/1/3
f 191/1/3 188/1/3 190/1/3
f 192/1/3 188/1/3 191/1/3
f 194/1/3 190/1/3 189/1/3
f 194/1/3 191/1/3 190/1/3
f 195/1/3 191/1/3 194/1/3
f 196/1/3 191/1/3 195/1/3
f 198/1/3 194/1/3 193/1/3
f 198/1/3 195/1/3 194/1/3
f 199/1/3 195/1/3 198/1/3
f 200/1/3 195/1/3 199/1/3
f 201/1/3 198/1/3 197/1/3
f 201/1/3 199/1/3 198/1/3
f 202/1/3 199/1/3 201/1/3
f 203/1/3 199/1/3 202/1/3
f 207/1/3 204/1/3 203/1/3
f 207/1/3 203/1/3 202/1/3
f 208/1/3 204/1/3 207/1/3
f 209/1/3 204/1/3 208/1/3
f 211/1/3 210/1/3 209/1/3
f 211/1/3 209/1/3 208/1/3
f 212/1/3 210/1/3 211/1/3
f 213/1/3 210/1/3 212/1/3
f 214/1/3 206/1/3 205/1/3
f 215/1/3 206/1/3 214/1/3
f 216/1/3 213/1/3 212/1/3
f 216/1/3 214/1/3 213/1/3
f 217/1/3 214/1/3 216/1/3
f 220/2/3 219/2/3 218/2/3
f 224/2/3 221/2/3 220/2/3
f 225/1/3 223/1/3 222/1/3
f 226/1/3 223/1/3 225/1/3
f 227/1/3 223/1/3 226/1/3
f 228/2/3 225/2/3 224/2/3
f 228/2/3 226/2/3 225/2/3
f 229/2/3 226/2/3 228/2/3
f 230/2/3 228/2/3 224/2/3
f 233/2/3 224/2/3 220/2/3
f 233/2/3 231/2/3 230/2/3
f 233/2/3 230/2/3 224/2/3
f 234/2/3 231/2/3 233/2/3
f 235/1/3 232/1/3 231/1/3
f 235/2/3 231/2/3 234/2/3
f 236/1/3 232/1/3 235/1/3
f 238/2/3 220/2/3 218/2/3
f 238/2/3 233/2/3 220/2/3
f 239/2/3 233/2/3 238/2/3
f 240/1/3 237/1/3 236/1/3
f 240/1/3 236/1/3 235/1/3
f 240/1/3 235/1/3 234/1/3
f 241/1/3 237/1/3 240/1/3
f 244/1/3 243/1/3 242/1/3
f 245/1/3 243/1/3 244/1/3
f 252/1/3 247/1/3 246/1/3
f 253/1/3 247/1/3 252/1/3
f 254/1/3 249/1/3 248/1/3
f 255/1/3 249/1/3 254/1/3
f 256/1/3 251/1/3 250/1/3
f 257/1/3 251/1/3 256/1/3
f 258/1/4 259/1/4 260/1/4
f 260/1/4 259/1/4 261/1/4
f 262/1/4 263/1/4 264/1/4
f 264/1/4 263/1/4 265/1/4
f 265/1/4 263/1/4 266/1/4
f 267/1/4 268/1/4 269/1/4
f 269/1/4 268/1/4 270/1/4
f 271/1/4 272/1/4 273/1/4
f 273/1/4 272/1/4 274/1/4
f 275/1/4 276/1/4 278/1/4
f 276/1/4 277/1/4 278/1/4
f 278/1/4 277/1/4 279/1/4
f 280/2/4 281/2/4 282/2/4
f 282/2/4 283/2/4 288/2/4
f 284/1/4 285/1/4 290/1/4
f 290/1/4 285/1/4 291/1/4
f 288/2/4 289/2/4 292/2/4
f 288/2/4 292/2/4 294/2/4
f 292/2/4 293/2/4 294/2/4
f 294/2/4 293/2/4 295/2/4
f 282/2/4 288/2/4 296/2/4
f 288/2/4 294/2/4 296/2/4
f 296/2/4 294/2/4 297/2/4
f 280/2/4 282/2/4 298/2/4
f 282/2/4 296/2/4 298/2/4
f 298/2/4 296/2/4 299/2/4
f 286/1/4 287/1/4 301/1/4
f 301/1/4 287/1/4 302/1/4
f 300/1/4 301/1/4 303/1/4
f 303/1/4 301/1/4 304/1/4
f 305/1/4 306/1/4 310/1/4
f 310/1/4 306/1/4 311/1/4
f 307/1/4 308/1/4 312/1/4
f 310/1/4 311/1/4 314/1/4
f 311/1/4 312/1/4 314/1/4
f 309/1/4 310/1/4 314/1/4
f 314/1/4 312/1/4 315/1/4
f 315/1/4 312/1/4 316/1/4
f 312/1/4 308/1/4 317/1/4
f 316/1/4 312/1/4 317/1/4
f 317/1/4 308/1/4 318/1/4
f 313/1/4 314/1/4 319/1/4
f 314/1/4 315/1/4 319/1/4
f 319/1/4 315/1/4 320/1/4
f 316/1/4 317/1/4 321/1/4
f 321/1/4 317/1/4 322/1/4
f 320/1/4 315/1/4 324/1/4
f 324/1/4 315/1/4 325/1/4
f 316/1/4 321/1/4 326/1/4
f 324/1/4 325/1/4 327/1/4
f 325/1/4 326/1/4 327/1/4
f 323/1/4 324/1/4 327/1/4
f 327/1/4 326/1/4 328/1/4
f 328/1/4 326/1/4 329/1/4
f 329/1/4 326/1/4 330/1/4
f 326/1/4 321/1/4 331/1/4
f 330/1/4 326/1/4 331/1/4
f 331/1/4 321/1/4 332/1/4
f 318/1/4 308/1/4 333/1/4
f 333/1/4 308/1/4 334/1/4
f 330/1/4 331/1/4 335/1/4
f 335/1/4 331/1/4 336/1/4
f 339/1/4 340/1/4 342/1/4
f 337/1/4 338/1/4 343/1/4
f 343/1/4 338/1/4 344/1/4
f 341/1/4 342/1/4 345/1/4
f 342/1/4 340/1/4 346/1/4
f 345/1/4 342/1/4 346/1/4
f 349/2/5 348/2/5 347/2/5
f 350/2/5 348/2/5 349/2/5
f 355/1/5 352/1/5 351/1/5
f 356/1/5 352/1/5 355/1/5
f 359/1/5 354/1/5 353/1/5
f 360/1/5 354/1/5 359/1/5
f 361/1/5 358/1/5 357/1/5
f 362/1/5 358/1/5 361/1/5
f 367/1/5 364/1/5 363/1/5
f 368/1/5 364/1/5 367/1/5
f 369/1/5 366/1/5 365/1/5
f 370/1/5 366/1/5 369/1/5
f 373/1/5 372/1/5 371/1/5
f 374/1/5 372/1/5 373/1/5
f 377/1/5 376/1/5 375/1/5
f 378/1/5 376/1/5 377/1/5
f 381/1/5 380/1/5 379/1/5
f 382/1/5 380/1/5 381/1/5
f 385/1/5 384/1/5 383/1/5
f 386/1/5 384/1/5 385/1/5
f 389/1/5 388/1/5 387/1/5
f 390/1/5 388/1/5 389/1/5
f 393/1/5 392/1/5 391/1/5
f 394/1/5 392/1/5 393/1/5
f 397/1/5 396/1/5 395/1/5
f 398/1/5 396/1/5 397/1/5
f 403/1/5 400/1/5 399/1/5
f 404/1/5 400/1/5 403/1/5
f 405/1/5 402/1/5 401/1/5
f 406/1/5 402/1/5 405/1/5
f 409/1/5 408/1/5 407/1/5
f 410/1/5 408/1/5 409/1/5
f 413/1/5 412/1/5 411/1/5
f 414/1/5 412/1/5 413/1/5
f 417/1/5 416/1/5 415/1/5
f 418/1/5 416/1/5 417/1/5
f 421/1/5 420/1/5 419/1/5
f 422/1/5 420/1/5 421/1/5
f 427/1/5 426/1/5 425/1/5
f 428/1/5 426/1/5 427/1/5
f 429/1/5 424/1/5 423/1/5
f 430/1/5 424/1/5 429/1/5
f 433/1/5 432/1/5 431/1/5
f 434/1/5 432/1/5 433/1/5
f 437/1/5 436/1/5 435/1/5
f 438/1/5 436/1/5 437/1/5
f 441/1/5 440/1/5 439/1/5
f 442/1/5 440/1/5 441/1/5
f 447/1/5 444/1/5 443/1/5
f 448/1/5 444/1/5 447/1/5
f 449/1/5 446/1/5 445/1/5
f 450/1/5 446/1/5 449/1/5
f 453/1/5 452/1/5 451/1/5
f 454/1/5 452/1/5 453/1/5
f 457/1/5 456/1/5 455/1/5
f 458/1/5 456/1/5 457/1/5
f 463/1/5 460/1/5 459/1/5
f 464/1/5 460/1/5 463/1/5
f 465/1/5 462/1/5 461/1/5
f 466/1/5 462/1/5 465/1/5
f 467/2/6 468/2/6 469/2/6
f 469/2/6 468/2/6 470/2/6
f 471/2/6 472/2/6 475/2/6
f 475/2/6 472/2/6 476/2/6
f 473/2/6 474/2/6 477/2/6
f 477/2/6 474/2/6 478/2/6
f 479/1/6 480/1/6 483/1/6
f 483/1/6 480/1/6 484/1/6
f 481/1/6 482/1/6 485/1/6
f 485/1/6 482/1/6 486/1/6
f 487/1/6 488/1/6 489/1/6
f 489/1/6 488/1/6 490/1/6
f 491/1/6 492/1/6 493/1/6
f 493/1/6 492/1/6 494/1/6
f 495/1/6 496/1/6 497/1/6
f 497/1/6 496/1/6 498/1/6
f 499/1/6 500/1/6 501/1/6
f 501/1/6 500/1/6 502/1/6
f 504/1/6 505/1/6 506/1/6
f 502/1/6 503/1/6 507/1/6
f 507/1/6 503/1/6 508/1/6
f 504/1/6 506/1/6 509/1/6
f 506/1/6 507/1/6 509/1/6
f 509/1/6 507/1/6 510/1/6
f 511/1/6 512/1/6 513/1/6
f 511/1/6 513/1/6 515/1/6
f 513/1/6 514/1/6 515/1/6
f 515/1/6 514/1/6 516/1/6
